<?xml version="1.0" standalone="no"?>
<!DOCTYPE svg PUBLIC "-//W3C//DTD SVG 20010904//EN" "http://www.w3.org/TR/2001/REC-SVG-20010904/DTD/svg10.dtd">
<svg xmlns="http://www.w3.org/2000/svg" version="1.0" width="1024" height="1024" viewBox="0 0 1024.000000 1024.000000" preserveAspectRatio="xMidYMid meet">

<g transform="translate(0.000000,1024.000000) scale(0.100000,-0.100000)" fill="#000000" stroke="none">
<path d="M5105 7934 c-41 -21 -196 -131 -620 -439 -198 -144 -386 -279 -417 -300 l-58 -38 0 -53 c0 -54 0 -54 33 -55 17 -1 39 -1 49 0 9 1 32 -5 52 -13 l36 -15 0 -153 c0 -84 -4 -313 -9 -508 -6 -195 -13 -548 -16 -785 -5 -430 -19 -946 -31 -1146 l-5 -106 61 58 c77 74 132 99 216 99 73 0 97 -8 168 -55 33 -22 66 -56 91 -94 21 -34 44 -61 51 -61 6 0 95 87 197 194 198 207 207 220 207 319 0 34 4 49 16 54 25 9 34 -9 49 -98 l13 -83 150 -146 c82 -80 162 -162 177 -183 15 -20 33 -37 39 -37 7 0 22 18 34 39 43 76 174 151 264 151 79 0 221 -78 257 -141 9 -16 19 -29 24 -29 10 0 9 330 -3 815 -5 220 -12 533 -15 695 -4 162 -8 349 -10 415 -2 66 -5 271 -7 455 l-3 335 73 6 c99 9 102 11 102 60 0 37 -6 47 -42 82 -24 21 -131 100 -238 175 -337 235 -492 346 -664 476 -92 69 -173 126 -179 126 -7 0 -25 -7 -42 -16z m106 -695 c47 -16 96 -54 114 -89 8 -15 18 -53 21 -83 6 -48 3 -61 -22 -107 -34 -63 -82 -89 -159 -90 -178 0 -274 123 -205 265 16 33 36 54 78 80 61 38 110 45 173 24z m-129 -506 c16 -15 18 -35 18 -215 l0 -198 -24 -10 c-13 -5 -37 -5 -53 -1 l-28 7 0 196 c0 179 2 198 19 217 23 25 43 27 68 4z m187 -10 c20 -25 21 -36 19 -217 l-3 -190 -35 -8 c-72 -15 -70 -20 -70 204 0 173 2 204 17 220 23 25 48 22 72 -9z m-646 -711 c15 -13 17 -36 17 -198 0 -174 -1 -184 -20 -194 -12 -6 -35 -10 -53 -8 l-32 3 -3 188 -2 187 25 26 c25 25 34 25 68 -4z m149 1 c16 -14 18 -35 18 -203 l0 -188 -26 -6 c-15 -4 -39 -4 -55 -1 l-29 7 0 186 c0 158 2 188 17 204 20 22 51 23 75 1z m833 -7 c13 -19 15 -54 13 -202 l-3 -179 -41 -3 c-27 -2 -45 2 -53 12 -18 22 -11 357 8 379 20 25 58 21 76 -7z m163 1 c22 -23 22 -30 20 -203 l-3 -179 -38 -3 c-66 -6 -67 -1 -67 202 0 128 4 186 12 194 19 19 53 14 76 -11z m-565 -625 c31 -27 38 -81 35 -262 l-3 -175 -105 0 -105 0 0 198 0 199 38 35 c35 32 42 34 80 28 23 -4 50 -14 60 -23z"/>
<path d="M5066 7138 c-29 -26 -39 -43 -43 -75 -7 -53 12 -85 69 -114 59 -30 122 -20 149 24 59 98 11 197 -97 197 -32 0 -49 -7 -78 -32z"/>
<path d="M4000 6998 c0 -78 -12 -375 -15 -385 -2 -7 -81 -51 -174 -97 -93 -47 -275 -141 -403 -209 -375 -200 -429 -227 -442 -220 -73 44 -407 324 -524 440 -63 63 -59 63 -257 53 -99 -5 -322 -14 -495 -20 -173 -6 -391 -15 -485 -20 -93 -5 -225 -10 -292 -10 -79 0 -123 -4 -123 -10 0 -6 7 -25 16 -42 15 -29 15 -54 4 -257 -9 -185 -39 -602 -87 -1210 -5 -71 -10 -88 -30 -107 -47 -44 -35 -48 125 -39 81 5 257 10 392 11 603 5 1071 17 1086 29 19 14 27 105 49 575 9 190 22 431 31 535 8 105 17 238 21 298 3 59 7 107 8 107 1 0 22 -18 46 -41 24 -22 120 -104 213 -182 94 -78 194 -164 223 -192 l52 -50 -9 -150 c-28 -421 -40 -647 -51 -915 -6 -162 -13 -297 -15 -299 -2 -2 -28 12 -56 32 -106 72 -455 267 -478 267 -13 0 -13 -36 0 -60 5 -10 56 -43 112 -73 111 -59 332 -193 387 -234 l34 -26 -7 -146 c-4 -80 -13 -231 -21 -336 -8 -104 -21 -295 -30 -424 -9 -129 -18 -237 -20 -241 -2 -4 -9 -129 -15 -280 -10 -246 -9 -275 5 -289 13 -14 46 -16 215 -16 150 0 202 3 212 13 10 10 15 90 20 325 11 510 13 531 70 584 31 29 106 63 141 63 37 0 75 -21 113 -62 61 -64 59 -49 64 -498 l5 -415 116 -3 c85 -2 119 1 127 10 7 9 11 209 14 603 3 550 2 592 -15 623 -36 66 -133 104 -222 88 -47 -9 -110 -67 -136 -124 -18 -38 -19 -51 -10 -88 14 -56 15 -54 -14 -54 -24 0 -25 3 -25 60 0 74 -15 105 -75 158 -90 79 -200 61 -260 -42 -38 -65 -47 -104 -33 -143 16 -44 1 -62 -38 -44 -19 8 -24 16 -19 29 4 9 9 53 11 97 6 113 20 166 64 233 69 107 195 192 319 213 67 12 172 -5 259 -42 67 -29 169 -108 187 -145 8 -17 21 -34 29 -37 24 -9 26 40 46 1008 6 275 13 563 15 640 3 77 8 274 11 438 4 172 11 297 16 297 6 0 7 -118 4 -302 -3 -167 -8 -442 -11 -613 -13 -750 -25 -1355 -31 -1536 -7 -226 -10 -219 84 -211 l52 4 0 111 c0 62 7 353 15 647 8 294 15 679 15 855 1 176 6 399 10 495 13 251 18 985 8 1004 -7 12 -25 16 -68 16 -56 0 -60 -2 -60 -22z m-2126 -648 c15 -5 28 -20 32 -35 9 -36 -2 -42 -29 -17 -36 34 -60 27 -112 -30 -26 -29 -44 -45 -41 -35 3 10 6 28 6 39 0 11 15 35 34 54 35 35 64 42 110 24z m280 -12 c26 -23 46 -78 29 -78 -5 0 -19 14 -31 30 -13 17 -32 30 -43 30 -21 0 -67 -40 -86 -75 -18 -31 -25 -11 -13 33 19 74 94 104 144 60z m-558 2 c19 0 54 -36 54 -56 0 -14 -2 -14 -22 0 -32 23 -85 21 -92 -2 -4 -11 -18 -29 -31 -42 -31 -29 -33 -13 -6 46 20 44 47 67 69 59 8 -3 20 -5 28 -5z m-228 -26 c12 -8 22 -22 22 -30 0 -16 -16 -19 -25 -4 -19 30 -95 -12 -110 -61 -11 -33 -23 -11 -15 26 16 72 77 105 128 69z m-243 -10 c29 -29 15 -49 -34 -49 -61 0 -80 -28 -92 -136 -5 -46 -27 -253 -49 -459 -22 -206 -47 -429 -55 -495 -8 -66 -15 -146 -15 -178 0 -43 -4 -59 -15 -64 -9 -3 -18 -3 -21 0 -7 6 12 194 31 322 15 96 26 208 50 505 17 205 50 450 67 493 20 52 47 77 83 77 18 0 41 -7 50 -16z m2515 -314 c19 -19 20 -29 14 -188 -3 -92 -7 -173 -10 -180 -2 -9 -18 -12 -46 -10 l-43 3 0 155 c1 164 6 199 31 224 20 21 30 20 54 -4z m134 -12 c13 -18 16 -55 16 -190 l0 -168 -24 -11 c-14 -7 -36 -9 -50 -5 l-26 6 0 173 c0 184 8 217 50 217 10 0 26 -10 34 -22z m-2114 -566 c26 -21 28 -65 10 -220 -5 -48 -10 -119 -10 -158 0 -82 -10 -97 -62 -92 l-33 3 3 85 c14 356 20 400 57 400 7 0 23 -8 35 -18z m-155 2 c8 -4 22 -19 30 -35 15 -29 14 -62 -13 -359 l-7 -75 -45 0 -45 0 3 115 c6 185 19 329 32 345 14 17 21 18 45 9z m1992 -254 c17 -10 37 -28 43 -39 7 -13 9 -89 8 -213 l-3 -193 -113 -3 c-92 -2 -113 0 -118 12 -3 8 -2 101 3 207 l9 191 32 29 c39 35 91 39 139 9z"/>
<path d="M6127 7013 c-3 -5 -1 -136 4 -293 4 -157 13 -598 19 -980 17 -1125 30 -1803 36 -1828 4 -21 9 -23 72 -20 l67 3 1 120 c0 106 3 127 24 170 91 187 371 282 555 188 88 -45 156 -117 211 -222 23 -45 29 -70 31 -140 2 -47 8 -105 14 -128 15 -55 7 -75 -28 -71 -22 2 -27 7 -24 23 10 53 3 87 -25 128 -43 61 -87 87 -146 87 -59 0 -94 -17 -137 -65 -26 -30 -31 -44 -31 -85 0 -43 -13 -71 -26 -57 -2 2 -13 35 -24 73 -32 117 -113 168 -226 143 -48 -11 -58 -18 -84 -57 l-30 -45 0 -556 c0 -306 -3 -566 -6 -577 -4 -15 2 -28 17 -43 20 -19 35 -21 128 -21 58 0 113 5 121 10 12 7 14 46 12 242 -1 128 -5 301 -8 384 -7 164 -1 203 43 262 33 44 75 63 138 63 76 0 129 -32 166 -101 14 -26 21 -149 35 -585 3 -132 11 -249 16 -259 10 -18 20 -18 212 -12 128 5 206 12 215 19 15 12 14 61 -9 472 -5 94 -10 240 -11 325 -1 85 -6 218 -10 295 -8 129 -27 554 -63 1400 -8 182 -15 374 -15 427 -1 54 -3 112 -5 130 -3 18 -8 63 -11 99 -7 73 -26 100 -95 134 -58 29 -103 66 -92 77 14 14 74 -5 157 -50 l70 -37 7 -80 c4 -44 12 -273 18 -510 5 -236 15 -529 20 -650 10 -210 17 -402 40 -1010 5 -148 14 -367 19 -485 6 -118 13 -298 16 -400 7 -244 14 -306 34 -331 17 -21 26 -21 476 -24 340 -1 502 -6 620 -18 88 -10 204 -17 258 -17 95 0 98 1 107 25 5 14 7 60 4 102 -2 43 -13 251 -24 463 -11 212 -22 410 -25 440 -2 30 -7 102 -10 160 -3 58 -10 166 -15 240 -5 74 -12 187 -15 250 -6 107 -38 614 -50 775 -3 39 -10 138 -16 220 -13 194 -23 314 -48 620 -11 138 -25 315 -30 395 -6 80 -19 231 -30 335 -11 105 -22 225 -26 268 l-7 77 -96 0 c-54 0 -236 4 -407 9 -170 6 -446 13 -612 17 l-302 6 -26 -43 c-192 -325 -345 -575 -358 -583 -13 -8 -75 19 -279 121 -145 73 -285 145 -313 160 l-50 28 4 203 3 202 -70 0 c-39 0 -73 -3 -75 -7z m1993 -464 c100 -45 127 -95 146 -273 8 -72 17 -190 21 -263 l6 -132 -26 -12 c-18 -8 -72 -9 -191 -4 -139 6 -168 10 -175 24 -5 9 -11 52 -15 96 -3 44 -13 164 -21 267 -14 164 -14 190 -1 215 18 36 64 79 96 92 41 16 112 12 160 -10z m-1558 -556 c16 -14 18 -34 18 -198 0 -181 0 -183 -22 -189 -13 -3 -33 -6 -45 -6 -21 0 -23 5 -23 53 0 28 -3 108 -6 177 -5 118 -4 127 16 153 25 31 36 33 62 10z m140 0 c16 -14 18 -34 18 -198 l0 -183 -32 -5 c-64 -9 -65 -7 -67 193 -2 129 1 185 10 196 15 19 48 18 71 -3z m160 -830 c10 -11 23 -38 28 -59 7 -31 13 -234 10 -362 0 -35 -59 -56 -138 -49 -35 3 -69 10 -75 16 -8 8 -12 75 -12 217 l0 206 34 30 c30 27 39 30 83 26 31 -3 57 -13 70 -25z m1578 -103 c19 -19 20 -31 18 -172 l-3 -152 -33 -7 c-23 -5 -38 -2 -52 10 -17 14 -20 35 -26 165 -7 138 -6 150 11 163 27 19 62 16 85 -7z"/>
<path d="M2463 6194 c-4 -11 4 -26 24 -43 17 -14 34 -36 38 -48 3 -13 13 -23 21 -23 19 0 19 52 -1 89 -21 42 -70 56 -82 25z"/>
<path d="M2630 6055 c-8 -20 -7 -31 1 -42 15 -18 27 -6 31 31 4 38 -19 46 -32 11z"/>
<path d="M2750 5975 c-16 -19 -9 -59 13 -63 13 -3 17 4 17 32 0 40 -12 53 -30 31z"/>
<path d="M2862 5888 c-14 -14 -16 -64 -3 -72 14 -9 43 31 39 55 -4 27 -19 34 -36 17z"/>
<path d="M2649 5234 c-10 -12 -16 -78 -23 -232 -9 -204 -9 -215 9 -228 43 -32 53 -20 60 71 4 46 8 152 9 235 1 124 -2 152 -14 160 -21 13 -25 12 -41 -6z"/>
<path d="M1310 4836 l-604 -11 -12 -23 c-6 -12 -14 -70 -18 -128 -4 -58 -16 -183 -27 -277 -28 -242 -82 -858 -109 -1227 -5 -80 -20 -252 -31 -383 -21 -224 -21 -239 -5 -255 14 -15 37 -17 159 -15 78 2 162 6 187 11 l45 7 7 90 c15 178 28 313 48 487 11 98 24 249 30 335 13 195 15 211 48 298 50 134 171 224 313 233 56 3 76 0 127 -23 82 -37 136 -95 152 -164 18 -77 8 -336 -29 -731 -16 -179 -33 -366 -36 -417 l-7 -92 33 -5 c19 -3 161 -8 316 -11 l282 -6 10 38 c5 21 15 153 21 293 11 261 32 625 50 875 10 133 32 581 35 710 2 92 6 347 5 378 l0 27 -192 -2 c-106 -1 -465 -6 -798 -12z m169 -395 c11 -7 12 -33 7 -137 -5 -71 -10 -132 -12 -136 -3 -5 -21 -8 -40 -8 l-34 0 1 58 c2 196 24 257 78 223z"/>
<path d="M5108 4641 c-7 -10 -100 -110 -207 -222 -113 -118 -202 -221 -212 -244 -25 -54 -28 -270 -4 -279 43 -16 55 13 55 135 0 80 2 89 32 134 55 84 188 210 233 223 91 26 169 26 247 1 65 -21 81 -31 142 -93 114 -116 118 -125 118 -260 0 -103 2 -118 18 -126 28 -15 57 -12 64 6 10 27 -6 267 -20 294 -18 35 -423 450 -439 450 -8 0 -20 -8 -27 -19z"/>
<path d="M4281 4420 c-72 -40 -85 -53 -124 -119 l-32 -56 -5 -190 -5 -190 -85 -1 c-47 -1 -93 -2 -102 -3 -21 -1 -24 -34 -5 -48 20 -16 138 -25 154 -12 7 7 15 10 17 8 1 -2 -3 -182 -11 -399 -7 -217 -12 -447 -10 -510 l2 -115 340 0 340 0 3 80 c3 105 -10 131 -62 128 l-38 -3 3 373 c2 299 -1 387 -13 448 -13 63 -14 108 -5 271 10 193 10 196 -12 232 -47 75 -158 136 -249 136 -33 0 -63 -9 -101 -30z"/>
<path d="M5795 4438 c-53 -12 -130 -62 -155 -103 -25 -40 -28 -109 -16 -320 7 -126 6 -160 -8 -211 -13 -52 -16 -124 -16 -432 l0 -370 -42 -7 c-24 -4 -49 -12 -55 -17 -14 -11 -18 -134 -7 -176 l6 -22 345 2 345 3 -2 475 c-1 261 -3 488 -4 505 l-1 30 82 0 c45 0 85 4 89 8 5 5 2 20 -7 35 -14 26 -18 27 -104 28 l-90 2 -7 166 c-3 91 -12 182 -19 203 -44 135 -201 229 -334 201z"/>
<path d="M6640 4366 c-81 -23 -176 -84 -227 -146 -25 -31 -59 -149 -50 -173 6 -15 12 -13 50 14 33 23 58 32 105 36 96 9 166 -27 206 -104 l23 -46 33 47 c35 52 93 85 146 86 45 0 113 -26 156 -60 20 -17 40 -30 44 -30 15 0 -9 86 -42 152 -74 147 -188 228 -329 234 -38 2 -90 -2 -115 -10z"/>
<path d="M3359 4342 c-64 -22 -149 -75 -196 -124 -30 -32 -93 -168 -93 -203 0 -11 13 -1 36 27 60 73 133 100 212 78 46 -12 117 -69 127 -101 10 -29 24 -23 68 27 81 92 178 109 293 49 37 -19 70 -33 72 -30 8 8 -38 116 -65 152 -73 100 -323 168 -454 125z"/>
<path d="M2543 4273 c-4 -21 -8 -90 -8 -153 l0 -114 32 -7 c39 -8 39 -6 49 156 6 106 5 123 -10 138 -30 29 -54 21 -63 -20z"/>
<path d="M4690 3861 c-31 -9 -39 -46 -13 -60 11 -5 38 -7 61 -4 36 5 42 9 42 30 0 16 -8 27 -26 33 -28 11 -28 11 -64 1z"/>
<path d="M5497 3863 c-4 -3 -7 -16 -7 -29 0 -18 7 -23 43 -28 24 -4 51 -4 60 0 21 8 22 50 1 58 -21 8 -89 8 -97 -1z"/>
<path d="M5039 3807 c-98 -37 -150 -97 -168 -192 -14 -74 -18 -812 -4 -826 11 -11 517 -14 534 -3 5 3 9 189 9 413 l0 407 -26 52 c-47 94 -137 153 -244 159 -39 2 -79 -2 -101 -10z"/>
<path d="M3978 3754 c-11 -18 -17 -92 -23 -264 -3 -96 -8 -260 -11 -363 -6 -205 -3 -217 46 -217 37 0 38 13 40 307 1 131 2 249 2 263 0 14 0 71 -1 127 -1 91 -3 105 -24 129 -13 15 -26 23 -29 18z"/>
<path d="M5540 3388 c0 -232 4 -358 10 -358 6 0 10 113 10 318 0 174 3 326 6 337 3 11 -2 29 -10 40 -14 18 -15 -16 -16 -337z"/>
<path d="M6262 3713 c-4 -10 -7 -202 -7 -428 l0 -410 33 -3 32 -3 2 213 c5 356 -3 589 -18 621 -17 31 -31 35 -42 10z"/>
<path d="M4705 3385 c-4 -185 -4 -339 -1 -342 19 -19 24 41 29 334 5 259 3 324 -7 332 -11 9 -15 -48 -21 -324z"/>
<path d="M3253 3523 c-3 -7 -3 -20 1 -28 5 -13 29 -15 158 -13 149 3 153 4 156 25 3 22 2 22 -154 25 -118 2 -158 0 -161 -9z"/>
<path d="M6672 3493 l3 -28 155 0 155 0 3 28 3 27 -161 0 -161 0 3 -27z"/>
<path d="M3930 2843 c0 -22 5 -44 12 -51 19 -19 63 -14 84 9 17 19 17 23 3 47 -12 22 -23 28 -57 30 l-42 3 0 -38z"/>
<path d="M6242 2848 c-7 -7 -12 -25 -12 -40 0 -22 6 -29 26 -34 42 -11 78 7 82 39 3 21 -2 29 -23 37 -35 13 -58 13 -73 -2z"/>
</g>
</svg>