<?xml version="1.0" standalone="no"?>
<!DOCTYPE svg PUBLIC "-//W3C//DTD SVG 20010904//EN" "http://www.w3.org/TR/2001/REC-SVG-20010904/DTD/svg10.dtd">
<svg xmlns="http://www.w3.org/2000/svg" version="1.0" width="1024" height="1024" viewBox="0 0 1024.000000 1024.000000" preserveAspectRatio="xMidYMid meet">

<g transform="translate(0.000000,1024.000000) scale(0.100000,-0.100000)" fill="#000000" stroke="none">
<path d="M5256 8129 c-24 -19 -27 -28 -25 -67 l3 -46 -79 -16 c-44 -9 -99 -26 -122 -38 -23 -12 -59 -22 -80 -22 -49 -1 -117 -32 -138 -64 -28 -43 -17 -65 49 -92 33 -13 61 -25 62 -27 2 -1 7 -50 13 -107 6 -58 21 -159 33 -224 16 -87 19 -121 11 -123 -28 -10 -95 -66 -102 -86 -11 -29 4 -57 32 -57 36 0 45 -12 52 -75 4 -33 27 -156 51 -273 24 -117 44 -216 44 -221 0 -4 -11 -13 -25 -19 -13 -6 -27 -23 -31 -37 l-6 -25 -238 0 -237 0 1 30 c1 16 4 30 9 30 15 0 6 25 -19 51 l-26 27 44 20 c52 23 73 46 85 92 8 30 15 36 51 45 56 14 73 32 48 50 -10 8 -23 16 -28 17 -5 2 2 75 17 168 15 91 34 215 43 275 20 130 36 160 91 169 21 3 44 13 51 21 11 14 10 20 -11 40 -42 40 -274 105 -378 105 l-36 0 3 49 c3 43 1 51 -23 70 -37 29 -61 27 -97 -9 -26 -26 -29 -36 -24 -64 7 -38 -3 -46 -62 -46 -20 -1 -62 -9 -92 -20 -30 -11 -62 -19 -71 -20 -34 0 -121 -32 -140 -51 -31 -31 -25 -56 16 -63 25 -5 39 -15 47 -32 6 -13 22 -27 34 -30 27 -7 26 -4 50 -209 8 -77 24 -189 35 -249 18 -98 18 -110 4 -126 -22 -25 -19 -37 15 -49 24 -8 30 -16 30 -39 0 -48 39 -95 95 -114 49 -16 50 -17 51 -57 1 -23 7 -55 14 -71 7 -17 10 -40 7 -52 -8 -31 10 -58 38 -58 33 0 54 -35 62 -101 7 -65 23 -100 59 -128 51 -40 129 -19 158 44 19 40 18 40 55 21 19 -10 31 -28 40 -58 22 -76 57 -124 117 -161 30 -19 70 -38 89 -41 24 -5 35 -13 39 -30 3 -13 30 -42 60 -64 46 -35 53 -44 49 -69 -8 -52 -28 -76 -105 -130 -43 -30 -81 -59 -84 -64 -9 -16 78 -94 117 -105 24 -7 35 -16 37 -32 3 -18 -2 -22 -21 -22 -28 0 -41 -22 -24 -39 6 -6 20 -11 30 -11 19 0 19 -14 16 -555 l-4 -554 -50 -51 c-29 -30 -77 -63 -113 -81 -62 -29 -63 -30 -57 -62 36 -168 120 -288 246 -353 l53 -26 -33 -17 c-51 -24 -62 -48 -32 -72 13 -10 31 -19 42 -19 41 0 26 -20 -26 -35 -72 -21 -149 -73 -153 -103 -5 -31 14 -51 67 -75 l44 -19 -6 -196 c-4 -107 -7 -235 -7 -283 0 -89 0 -89 -27 -95 -60 -12 -117 -38 -149 -66 -28 -24 -34 -37 -34 -68 0 -47 36 -94 85 -112 19 -6 35 -15 35 -18 0 -4 -19 -13 -42 -20 -65 -19 -135 -57 -217 -116 -53 -39 -82 -54 -106 -54 -60 0 -259 -57 -365 -105 -58 -26 -151 -57 -209 -70 -57 -13 -111 -30 -120 -38 -9 -7 -35 -22 -58 -32 -24 -10 -43 -24 -43 -31 0 -7 24 -26 53 -42 57 -33 118 -44 322 -61 66 -6 215 -21 330 -35 550 -65 952 -66 1605 -5 325 30 664 85 698 111 17 14 15 59 -3 85 -19 27 -92 52 -179 60 -59 5 -75 11 -105 38 -51 46 -86 61 -179 79 -46 9 -93 21 -105 28 -12 6 -71 14 -132 16 l-110 5 -35 37 c-20 21 -56 45 -85 55 -27 10 -88 35 -135 56 -47 20 -104 43 -128 49 -56 14 -50 33 14 41 58 7 95 21 113 43 26 31 -25 82 -123 122 l-51 20 -3 312 c-2 248 0 313 10 316 60 17 107 40 112 53 11 27 -32 61 -118 94 -106 41 -105 39 -62 61 20 10 40 26 43 34 7 18 -14 43 -46 56 -24 9 -23 10 34 47 112 72 195 181 237 312 18 57 19 70 8 84 -7 9 -70 48 -140 87 l-127 72 -6 389 c-4 215 -7 462 -7 549 0 148 1 158 19 158 22 0 45 25 36 40 -3 5 -17 10 -31 10 -19 0 -24 5 -24 25 0 18 8 28 33 39 52 22 117 75 117 95 0 24 -22 42 -95 79 -72 36 -90 55 -99 103 -6 34 -4 39 41 75 27 21 54 47 61 56 7 10 41 32 75 49 104 52 144 91 186 184 37 80 68 115 102 115 11 0 20 -11 24 -30 12 -55 76 -80 140 -55 35 13 46 24 59 56 9 22 16 60 16 84 0 38 3 45 20 45 49 0 77 145 40 208 -11 18 -20 34 -20 36 0 2 17 8 38 14 49 15 120 66 134 96 7 17 24 28 54 35 23 6 46 16 49 21 9 15 -14 40 -36 40 -28 0 -32 16 -16 68 9 26 22 88 31 137 9 50 25 137 35 195 11 58 23 131 26 163 5 41 12 60 24 64 80 25 94 44 59 80 -27 27 -202 89 -300 105 l-68 12 6 37 c5 32 2 42 -19 63 -31 31 -80 35 -116 10 -20 -14 -23 -23 -18 -60 4 -39 2 -45 -17 -49 -161 -36 -304 -80 -335 -103 -38 -28 -34 -62 9 -76 30 -10 35 -16 43 -56 16 -93 68 -349 92 -460 14 -63 25 -117 25 -120 0 -4 -12 -12 -27 -19 l-28 -13 23 -19 c13 -10 39 -21 58 -25 21 -4 34 -12 34 -22 0 -26 77 -91 126 -105 l46 -13 -25 -17 c-15 -9 -30 -34 -38 -61 l-13 -46 -218 0 c-197 0 -218 2 -218 17 0 9 -7 24 -16 34 -14 15 -13 31 6 170 12 85 31 212 43 283 l22 130 35 9 c46 12 60 24 60 54 0 30 -40 69 -106 103 -27 14 -54 28 -60 32 -8 6 -5 45 11 135 13 71 26 161 30 201 8 81 7 80 114 115 115 38 -25 137 -269 189 -52 11 -101 22 -108 24 -9 3 -11 11 -6 26 30 88 -58 154 -130 97z m227 -415 c39 -8 75 -18 79 -22 7 -7 -14 -229 -28 -295 -6 -28 -6 -28 -67 -22 -88 9 -85 7 -79 63 4 44 1 54 -21 76 -30 30 -55 32 -98 11 -38 -20 -53 -58 -39 -98 5 -17 10 -33 10 -37 0 -7 -169 -55 -174 -49 -6 8 -46 276 -46 311 0 33 3 38 37 49 118 39 281 44 426 13z m862 -284 c49 -6 94 -15 98 -19 5 -5 0 -53 -11 -107 -11 -55 -25 -137 -32 -184 -6 -47 -17 -112 -23 -145 l-13 -60 -189 0 -190 0 -42 200 c-23 110 -45 218 -49 241 l-6 41 88 16 c49 9 98 18 109 21 40 8 172 6 260 -4z m-1766 -41 l83 -11 -7 -77 c-7 -80 -41 -330 -50 -368 -5 -23 -7 -23 -195 -23 -171 0 -189 2 -194 18 -9 30 -34 242 -42 348 l-7 102 34 7 c96 21 232 23 378 4z m1011 -338 c0 -10 -5 -43 -10 -72 -6 -30 -20 -115 -31 -189 -11 -74 -22 -147 -25 -163 l-6 -27 -186 2 -187 3 -41 193 c-23 107 -45 211 -48 233 l-6 39 270 0 c257 0 270 -1 270 -19z m-1034 -288 c-14 -55 -66 -72 -66 -23 0 22 6 33 23 40 40 16 50 12 43 -17z m-232 -10 c4 -16 9 -36 12 -45 4 -14 0 -18 -18 -18 -37 0 -68 27 -68 61 0 26 3 29 34 29 29 0 35 -4 40 -27z m105 10 c-1 -10 -4 -29 -9 -43 -8 -27 -13 -20 -24 33 -5 22 -3 27 14 27 13 0 20 -6 19 -17z m1714 -12 c8 -8 0 -61 -9 -61 -3 0 -21 7 -41 15 -41 17 -73 43 -73 58 0 11 110 1 123 -12z m158 -15 c-21 -23 -68 -42 -78 -33 -2 3 -1 16 2 30 6 22 13 26 48 29 23 2 44 2 46 0 3 -1 -6 -13 -18 -26z m-201 -415 c0 -77 -53 -97 -81 -29 -15 36 -4 59 32 69 46 13 49 11 49 -40z m-1505 5 c31 -13 35 -19 35 -50 0 -35 -27 -76 -50 -76 -6 0 -22 11 -35 25 -19 18 -25 35 -25 70 0 51 13 57 75 31z m580 -629 c-15 -33 -75 -99 -75 -83 0 12 82 127 87 122 3 -2 -3 -20 -12 -39z m91 -26 c-27 -51 -37 -45 -16 9 11 28 21 54 21 58 1 4 4 -3 6 -15 2 -12 -3 -35 -11 -52z m260 -28 c-9 -9 -76 19 -106 44 -52 43 -33 44 41 1 38 -22 68 -42 65 -45z m-26 -1438 c70 -14 184 -54 177 -62 -3 -2 -31 3 -63 11 -33 8 -101 22 -151 31 -107 18 -125 24 -117 36 6 10 48 5 154 -16z m-340 -20 c0 -8 -73 -42 -106 -49 l-32 -7 15 -57 c21 -80 55 -146 112 -222 28 -36 50 -69 51 -73 0 -19 -102 78 -126 119 -28 48 -57 134 -69 200 l-6 42 73 25 c78 27 88 30 88 22z m65 -164 c8 -69 13 -127 10 -129 -11 -11 -27 85 -30 178 -5 127 0 115 20 -49z m219 92 c-7 -31 -57 -196 -61 -202 -21 -31 12 124 42 196 17 40 28 43 19 6z m151 -75 c-26 -89 -101 -210 -152 -243 -16 -11 -7 9 35 72 31 49 68 112 82 141 25 52 47 71 35 30z m-306 -490 c67 -15 56 -27 -16 -17 -62 9 -142 0 -210 -24 -47 -16 -55 -14 -21 4 86 46 161 57 247 37z m-109 -758 c-14 -5 -57 -17 -95 -29 -112 -32 -151 -93 -68 -106 21 -4 47 -10 58 -15 16 -7 13 -9 -18 -9 -40 -1 -100 20 -112 39 -26 41 37 89 150 113 79 17 127 21 85 7z"/>
</g>
</svg>