<svg xmlns="http://www.w3.org/2000/svg" width="1024" height="1024" viewBox="0 0 1024 1024">
<g>
<path d="M 413.74 740.98 C406.72,740.11 399.59,737.54 395.30,734.36 C376.91,720.68 372.86,695.71 386.20,678.28 C393.02,669.37 398.80,666.36 424.00,658.61 C444.21,652.38 457.45,644.23 468.92,630.93 C485.96,611.18 495.50,590.94 497.55,570.24 L 498.24 563.23 L 490.87 562.40 C486.82,561.94 483.06,561.56 482.53,561.54 C482.00,561.52 481.01,564.79 480.34,568.80 C474.94,601.06 455.89,627.20 430.22,637.57 C416.29,643.19 415.45,643.28 370.00,644.04 C343.39,644.48 325.82,645.17 323.00,645.90 C309.68,649.33 300.27,655.82 293.10,666.54 C287.32,675.19 285.69,680.03 285.73,688.50 C285.79,700.14 291.12,708.90 301.20,713.94 C311.32,719.00 321.67,717.39 329.53,709.53 C335.03,704.02 337.00,698.04 337.00,686.82 L 337.00 678.00 L 349.50 678.00 L 362.00 678.00 L 361.99 686.25 C361.97,711.29 353.26,726.49 333.44,736.09 C325.63,739.87 323.82,740.34 315.48,740.78 C307.94,741.17 304.94,740.87 299.36,739.16 C289.99,736.30 280.80,730.62 274.48,723.80 C248.54,695.80 262.52,646.47 301.50,628.47 C315.43,622.04 317.48,621.79 362.50,620.98 C388.59,620.51 405.32,619.80 408.50,619.03 C428.19,614.27 444.25,599.34 451.87,578.71 C454.15,572.53 457.00,557.91 457.00,552.41 C457.00,548.75 457.09,548.78 444.90,547.49 L 439.30 546.89 L 438.63 554.83 C437.83,564.50 435.27,572.24 430.54,579.38 C422.26,591.85 409.67,599.81 394.74,602.01 C389.20,602.83 377.81,603.08 360.00,602.78 C336.64,602.40 332.76,602.10 327.25,600.28 C311.95,595.22 300.63,582.98 295.61,566.07 C293.36,558.48 293.52,545.77 295.96,537.86 C301.36,520.41 316.53,507.22 335.76,503.28 C354.63,499.41 371.75,507.33 379.50,523.52 C382.06,528.85 382.41,530.83 382.80,541.75 L 383.24 554.00 L 370.62 554.00 L 358.00 554.00 L 358.00 544.45 C358.00,537.87 357.53,533.99 356.48,531.97 C352.13,523.55 336.82,524.12 326.64,533.09 C312.83,545.24 315.23,565.58 331.50,574.33 C335.24,576.34 337.18,576.50 361.27,576.82 C383.57,577.13 387.78,576.94 392.54,575.44 C406.42,571.08 413.61,557.84 411.00,541.48 C409.42,531.59 406.23,524.71 395.86,508.80 C375.21,477.10 364.84,450.36 362.00,421.47 C360.26,403.81 362.74,382.96 368.78,364.50 C372.08,354.42 382.09,334.66 388.54,325.50 C395.89,315.05 409.20,301.65 420.86,292.95 C460.69,263.24 513.98,256.13 561.97,274.14 C597.70,287.54 629.21,314.71 645.52,346.18 C651.20,357.14 657.43,375.68 659.57,388.00 C661.80,400.90 661.07,428.69 658.16,441.00 C652.88,463.33 642.20,487.42 628.44,508.00 C615.72,527.04 611.19,539.45 612.49,551.73 C613.80,564.04 620.17,572.03 631.43,575.49 C638.65,577.70 682.40,577.66 689.91,575.43 C703.46,571.41 710.88,554.33 704.46,541.92 C699.65,532.62 689.60,526.03 680.20,526.01 C669.14,525.99 666.00,530.07 666.00,544.45 L 666.00 554.00 L 653.38 554.00 L 640.76 554.00 L 641.18 541.75 C641.54,531.20 641.96,528.71 644.21,523.82 C649.60,512.12 659.02,505.18 672.66,502.87 C681.95,501.29 691.51,502.97 701.73,507.97 C719.72,516.78 730.00,532.77 730.00,551.98 C730.00,574.55 716.83,593.77 697.00,600.14 C691.23,601.99 687.27,602.28 661.89,602.74 C629.85,603.33 623.47,602.57 612.05,596.86 C604.45,593.07 595.39,584.08 591.16,576.15 C587.62,569.50 585.04,559.27 585.02,551.72 L 585.00 546.94 L 578.25 547.53 C565.88,548.61 566.67,547.94 567.49,556.80 C568.96,572.49 573.47,585.30 581.48,596.52 C589.86,608.27 598.57,614.30 612.85,618.25 C619.84,620.18 624.03,620.42 661.50,621.01 C698.81,621.61 703.19,621.85 710.12,623.76 C746.55,633.77 768.53,666.55 761.98,701.11 C758.55,719.17 742.11,735.54 723.00,739.92 C700.63,745.05 677.45,733.55 667.26,712.28 C664.28,706.05 663.67,703.49 662.88,693.78 C661.51,677.13 660.72,678.18 675.01,677.81 L 687.00 677.50 L 687.00 686.07 C687.00,691.21 687.62,696.47 688.55,699.21 C691.84,708.86 702.41,716.97 711.71,716.99 C721.52,717.01 731.19,710.69 735.98,701.12 C743.24,686.63 735.83,665.25 719.63,653.91 C707.03,645.10 699.82,644.00 654.16,643.99 C621.98,643.98 616.37,643.74 608.22,642.06 C597.67,639.88 585.51,634.41 576.63,627.84 C560.94,616.24 546.28,589.15 543.55,566.75 L 542.86 561.00 L 538.68 561.63 C536.38,561.98 532.70,562.55 530.50,562.91 L 526.50 563.56 L 526.82 569.53 C527.89,589.91 540.01,615.22 557.72,634.04 C569.13,646.17 580.51,652.69 601.20,658.97 C627.83,667.04 635.30,671.75 641.79,684.55 C651.44,703.62 641.38,730.63 621.86,738.07 C615.92,740.34 614.23,740.50 595.98,740.50 L 576.45 740.50 L 569.81 737.23 C561.45,733.11 554.00,725.23 550.92,717.25 C549.49,713.53 548.54,708.40 548.23,702.72 L 547.75 693.93 L 559.63 694.22 L 571.50 694.50 L 572.00 701.68 C572.57,709.80 574.42,713.15 580.02,716.15 C582.89,717.69 585.74,718.00 597.09,718.00 C609.56,718.00 610.98,717.81 614.01,715.75 C621.60,710.58 623.78,703.30 620.04,695.58 C616.81,688.92 613.71,687.18 601.28,685.08 C577.61,681.07 555.25,669.50 538.46,652.59 C530.54,644.62 519.36,629.03 514.89,619.75 C512.84,615.50 511.00,613.63 511.00,615.79 C511.00,617.36 500.63,634.63 496.33,640.21 C490.16,648.24 480.68,657.66 472.70,663.70 C458.76,674.26 438.26,682.94 422.12,685.13 C417.38,685.77 412.35,686.88 410.93,687.58 C407.35,689.37 402.92,696.13 402.35,700.68 C401.73,705.67 405.26,712.66 410.00,715.81 C413.34,718.03 414.18,718.12 428.68,717.82 L 443.87 717.50 L 447.06 714.50 C451.30,710.51 453.00,706.22 453.00,699.53 L 453.00 694.00 L 464.53 694.00 C474.17,694.00 476.16,694.26 476.68,695.60 C477.83,698.60 475.33,713.59 472.73,719.27 C467.80,730.06 456.18,739.13 445.70,740.40 C437.70,741.37 419.47,741.70 413.74,740.98 ZM 495.45 514.75 C495.79,510.76 495.94,506.04 495.79,504.25 L 495.50 501.00 L 484.75 501.00 L 474.00 501.00 L 474.00 511.50 L 474.00 522.00 L 484.41 522.00 L 494.83 522.00 L 495.45 514.75 ZM 550.00 511.50 L 550.00 501.00 L 539.00 501.00 L 528.00 501.00 L 528.00 511.50 L 528.00 522.00 L 539.00 522.00 L 550.00 522.00 L 550.00 511.50 ZM 627.51 398.82 C628.64,397.69 625.30,378.03 622.45,369.00 C613.26,339.91 591.17,314.13 563.46,300.17 C548.64,292.70 530.24,288.00 515.83,288.00 L 508.93 288.00 L 509.22 298.25 L 509.50 308.50 L 517.78 309.19 C541.13,311.12 561.35,320.35 577.59,336.47 C593.60,352.36 602.38,369.73 605.09,390.86 L 606.28 400.17 L 616.56 399.84 C622.21,399.65 627.14,399.20 627.51,398.82 Z" fill="rgba(0,0,0,1)"/>
</g>
</svg>